<svg width="63" height="64" viewBox="0 0 63 64" fill="none" xmlns="http://www.w3.org/2000/svg">
<g clip-path="url(#clip0)">
<path fill-rule="evenodd" clip-rule="evenodd" d="M44.4307 56.6909C44.4307 56.6909 60.2253 57.3385 61.1165 55.3791C62.0077 53.4197 65.2962 37.5258 59.1831 32.9356C53.07 28.3454 42.0921 27.4522 32.4817 21.9436C22.8713 16.4349 17.2241 9.98003 11.7064 7.09852C6.18866 4.21701 -18.6431 0 -35.5882 0C-52.5333 0 -83.8951 7.09852 -83.8951 7.09852V21.9436C-83.8951 21.9436 -91.4671 25.1865 -92.5526 28.3454C-93.6382 31.5044 -93.4605 46.3394 -92.5526 49.9136C-91.6448 53.4878 -85.3527 56.6909 -85.3527 56.6909H-72.7966H20.8574" fill="white"/>
<path d="M44.4307 56.6909C44.4307 56.6909 60.2253 57.3385 61.1165 55.3791C62.0077 53.4196 65.2962 37.5258 59.1831 32.9356C53.07 28.3454 42.0921 27.4522 32.4817 21.9436C22.8713 16.4349 17.2241 9.98003 11.7064 7.09852C6.18866 4.21701 -18.6431 0 -35.5882 0C-52.5333 0 -83.8951 7.09852 -83.8951 7.09852V21.9436C-83.8951 21.9436 -91.4671 25.1865 -92.5526 28.3454C-93.6381 31.5044 -93.4605 46.3394 -92.5526 49.9136C-91.6448 53.4878 -85.3527 56.6909 -85.3527 56.6909H-72.7966H20.8574" stroke="black" stroke-width="3"/>
<circle r="12.9024" transform="matrix(-1 0 0 1 32.4819 49.9136)" fill="white" stroke="black" stroke-width="3"/>
<circle r="7.09632" transform="matrix(-1 0 0 1 32.4818 49.9136)" fill="white" stroke="black"/>
<path fill-rule="evenodd" clip-rule="evenodd" d="M20.8458 23.8902C18.4521 26.9736 -54.7092 24.5145 -54.7092 24.5145L-62.0404 6.84554C-62.0404 6.84554 -36.058 3.43638 -22.2598 4.83616C-13.7622 5.69821 0.532192 6.60284 10.3421 11.7753C12.5644 12.947 23.2395 20.8067 20.8458 23.8902Z" fill="white" stroke="black" stroke-width="2"/>
<path fill-rule="evenodd" clip-rule="evenodd" d="M62.6657 40.9223C62.7535 41.6596 55.3885 41.6636 54.2105 40.9223C53.0325 40.181 50.9862 35.5676 50.9862 35.1132C50.9862 34.6589 60.3267 34.7889 61.0436 35.267C61.7606 35.7451 62.578 40.1849 62.6657 40.9223Z" fill="white" stroke="black" stroke-width="2"/>
<path fill-rule="evenodd" clip-rule="evenodd" d="M12.8679 52.2839H-41.7889C-41.7889 52.2839 -44.3987 45 -14.7422 45C14.9142 45 12.8679 52.2839 12.8679 52.2839Z" fill="white" stroke="black" stroke-width="2"/>
</g>
<defs>
<clipPath id="clip0">
<rect width="158" height="64" fill="white" transform="translate(-95)"/>
</clipPath>
</defs>
</svg>
