<svg width="158" height="64" viewBox="0 0 158 64" fill="none" xmlns="http://www.w3.org/2000/svg">
<g clip-path="url(#clip0)">
<path fill-rule="evenodd" clip-rule="evenodd" d="M139.431 56.6909C139.431 56.6909 155.225 57.3385 156.117 55.3791C157.008 53.4197 160.296 37.5258 154.183 32.9356C148.07 28.3454 137.092 27.4522 127.482 21.9436C117.871 16.4349 112.224 9.98003 106.706 7.09852C101.189 4.21701 76.3569 0 59.4118 0C42.4667 0 11.1049 7.09852 11.1049 7.09852V21.9436C11.1049 21.9436 3.53287 25.1865 2.44736 28.3454C1.36185 31.5044 1.53949 46.3394 2.44736 49.9136C3.35522 53.4878 9.64729 56.6909 9.64729 56.6909H22.2034H115.857" fill="white"/>
<path d="M139.431 56.6909C139.431 56.6909 155.225 57.3385 156.117 55.3791C157.008 53.4196 160.296 37.5258 154.183 32.9356C148.07 28.3454 137.092 27.4522 127.482 21.9436C117.871 16.4349 112.224 9.98003 106.706 7.09852C101.189 4.21701 76.3569 0 59.4118 0C42.4667 0 11.1049 7.09852 11.1049 7.09852V21.9436C11.1049 21.9436 3.53286 25.1865 2.44736 28.3454C1.36185 31.5044 1.53949 46.3394 2.44736 49.9136C3.35522 53.4878 9.64729 56.6909 9.64729 56.6909H22.2034H115.857" stroke="black" stroke-width="3"/>
<circle r="12.9024" transform="matrix(-1 0 0 1 127.482 49.9136)" fill="white" stroke="black" stroke-width="3"/>
<circle r="7.09632" transform="matrix(-1 0 0 1 127.482 49.9136)" fill="white" stroke="black"/>
<circle r="12.9024" transform="matrix(-1 0 0 1 33.9394 49.9136)" fill="white" stroke="black" stroke-width="3"/>
<circle r="7.09632" transform="matrix(-1 0 0 1 33.9393 49.9136)" fill="white" stroke="black"/>
<path fill-rule="evenodd" clip-rule="evenodd" d="M115.846 23.8902C113.452 26.9736 40.2908 24.5145 40.2908 24.5145L32.9596 6.84554C32.9596 6.84554 58.942 3.43638 72.7402 4.83616C81.2378 5.69821 95.5322 6.60284 105.342 11.7753C107.564 12.947 118.239 20.8067 115.846 23.8902Z" fill="white" stroke="black" stroke-width="2"/>
<path fill-rule="evenodd" clip-rule="evenodd" d="M157.666 40.9223C157.753 41.6596 150.388 41.6636 149.21 40.9223C148.032 40.181 145.986 35.5676 145.986 35.1132C145.986 34.6589 155.327 34.7889 156.044 35.267C156.761 35.7451 157.578 40.1849 157.666 40.9223Z" fill="white" stroke="black" stroke-width="2"/>
<path fill-rule="evenodd" clip-rule="evenodd" d="M107.868 52.2839H53.2111C53.2111 52.2839 50.6013 45 80.2578 45C109.914 45 107.868 52.2839 107.868 52.2839Z" fill="white" stroke="black" stroke-width="2"/>
<path d="M68.232 38.1518C69.6594 38.1518 70.7012 37.2863 70.8037 36.023H69.5979C69.4789 36.6752 68.9457 37.0936 68.2361 37.0936C67.301 37.0936 66.7227 36.3061 66.7227 35.0387C66.7227 33.7713 67.301 32.9838 68.232 32.9838C68.9375 32.9838 69.4748 33.435 69.5937 34.1199H70.7996C70.7094 32.8484 69.6348 31.9297 68.232 31.9297C66.5135 31.9297 65.4553 33.115 65.4553 35.0387C65.4553 36.9623 66.5176 38.1518 68.232 38.1518ZM75.9184 33.4842H74.7248V36.0928C74.7248 36.7121 74.4049 37.0936 73.8102 37.0936C73.2605 37.0936 72.9775 36.7695 72.9775 36.1297V33.4842H71.784V36.425C71.784 37.475 72.391 38.0943 73.3672 38.0943C74.0521 38.0943 74.4746 37.799 74.6879 37.274H74.7617V38H75.9184V33.4842ZM81.1068 36.9582H78.4736V32.0814H77.235V38H81.1068V36.9582ZM82.7187 32.791C83.0879 32.791 83.3914 32.4957 83.3914 32.1266C83.3914 31.7533 83.0879 31.458 82.7187 31.458C82.3496 31.458 82.042 31.7533 82.042 32.1266C82.042 32.4957 82.3496 32.791 82.7187 32.791ZM82.1199 38H83.3135V33.4842H82.1199V38ZM84.8721 38H86.0656V34.4316H87.0008V33.5252H86.041V33.1438C86.041 32.75 86.2133 32.5572 86.6809 32.5572C86.8367 32.5572 86.9598 32.5695 87.0377 32.5818V31.7574C86.8654 31.7328 86.6645 31.7123 86.4225 31.7123C85.3314 31.7123 84.8721 32.1635 84.8721 33.0617V33.5252H84.142V34.4316H84.8721V38ZM88.3338 32.4055V33.5252H87.6283V34.4316H88.3338V36.7818C88.3338 37.6596 88.7686 38.0164 89.8678 38.0164C90.0975 38.0164 90.3189 37.9918 90.4666 37.9631V37.0813C90.3518 37.0936 90.2697 37.1018 90.1139 37.1018C89.7078 37.1018 89.5273 36.9131 89.5273 36.507V34.4316H90.4666V33.5252H89.5273V32.4055H88.3338Z" fill="black"/>
</g>
<defs>
<clipPath id="clip0">
<rect width="158" height="64" fill="white"/>
</clipPath>
</defs>
</svg>
