<svg width="40" height="37" viewBox="0 0 40 37" fill="none" xmlns="http://www.w3.org/2000/svg">
<g filter="url(#filter0_d)">
<mask id="path-1-outside-1" maskUnits="userSpaceOnUse" x="5" y="4" width="30" height="25" fill="black">
<rect fill="white" x="5" y="4" width="30" height="25"/>
<path fill-rule="evenodd" clip-rule="evenodd" d="M9.34911 26H10.5359C11.2967 26 11.885 25.4161 11.885 24.6581V22.9372L13.087 23.0052C14.9926 23.1012 17.308 23.1684 19.3357 23.1809L20 23.183C22.6069 23.183 25.8732 23.0806 28.1251 22.9372V24.6581C28.1251 25.4161 28.7033 26 29.4641 26H30.661C31.4218 26 32 25.4161 32 24.6581V18.7475C32 17.0266 31.6551 16.0535 30.7219 14.8242L29.8597 13.7077C29.4945 11.8638 28.8149 9.92778 28.47 9.16976C27.9222 8.01223 26.8774 7.32591 25.5283 7.14152L25.2932 7.1187C24.5594 7.05952 22.9935 7.0145 21.0978 7.00175L19.264 7C16.9738 7.01177 15.0967 7.07665 14.4818 7.14152C13.1327 7.30542 12.0778 8.01223 11.5402 9.16976C11.1851 9.92778 10.5156 11.8638 10.1403 13.7077L9.28825 14.8242C8.34489 16.0535 8 17.0266 8 18.7475V24.6581C8 25.4161 8.58833 26 9.34911 26ZM12.1893 12.8575C12.4227 11.7307 12.9197 10.2658 13.2544 9.67169C13.5283 9.19024 13.8225 8.98537 14.3702 8.91367L14.74 8.87045C15.5904 8.78984 17.1209 8.74446 19.5813 8.7399L21.159 8.74173C23.578 8.75178 24.9682 8.79787 25.6298 8.91367C26.1775 8.99561 26.4615 9.19024 26.7456 9.67169C27.0904 10.2556 27.5571 11.7307 27.8208 12.8575C27.9019 13.1944 27.7827 13.3451 27.4845 13.3529L25.3342 13.2392C24.1904 13.1882 22.8052 13.1474 20.9612 13.1367H19.0413C15.9756 13.1544 14.1766 13.256 12.6458 13.3491C12.2502 13.3799 12.0981 13.2365 12.1893 12.8575ZM10.9214 18.8295C10.9214 19.7924 11.6416 20.5299 12.6052 20.5299C13.5587 20.5299 14.2891 19.7924 14.2891 18.8295C14.2891 17.8563 13.5587 17.129 12.6052 17.129C11.6416 17.129 10.9214 17.8563 10.9214 18.8295ZM27.4049 20.5299C26.4413 20.5299 25.721 19.7924 25.721 18.8295C25.721 17.8563 26.4413 17.129 27.4049 17.129C28.3584 17.129 29.0888 17.8563 29.0888 18.8295C29.0888 19.7924 28.3584 20.5299 27.4049 20.5299ZM16.0947 18.8295C16.0947 19.5465 16.6019 20.0587 17.3119 20.0587H22.6881C23.4083 20.0587 23.9053 19.5465 23.9053 18.8295C23.9053 18.1022 23.4083 17.6002 22.6881 17.6002H17.3119C16.6019 17.6002 16.0947 18.1022 16.0947 18.8295Z"/>
</mask>
<path fill-rule="evenodd" clip-rule="evenodd" d="M9.34911 26H10.5359C11.2967 26 11.885 25.4161 11.885 24.6581V22.9372L13.087 23.0052C14.9926 23.1012 17.308 23.1684 19.3357 23.1809L20 23.183C22.6069 23.183 25.8732 23.0806 28.1251 22.9372V24.6581C28.1251 25.4161 28.7033 26 29.4641 26H30.661C31.4218 26 32 25.4161 32 24.6581V18.7475C32 17.0266 31.6551 16.0535 30.7219 14.8242L29.8597 13.7077C29.4945 11.8638 28.8149 9.92778 28.47 9.16976C27.9222 8.01223 26.8774 7.32591 25.5283 7.14152L25.2932 7.1187C24.5594 7.05952 22.9935 7.0145 21.0978 7.00175L19.264 7C16.9738 7.01177 15.0967 7.07665 14.4818 7.14152C13.1327 7.30542 12.0778 8.01223 11.5402 9.16976C11.1851 9.92778 10.5156 11.8638 10.1403 13.7077L9.28825 14.8242C8.34489 16.0535 8 17.0266 8 18.7475V24.6581C8 25.4161 8.58833 26 9.34911 26ZM12.1893 12.8575C12.4227 11.7307 12.9197 10.2658 13.2544 9.67169C13.5283 9.19024 13.8225 8.98537 14.3702 8.91367L14.74 8.87045C15.5904 8.78984 17.1209 8.74446 19.5813 8.7399L21.159 8.74173C23.578 8.75178 24.9682 8.79787 25.6298 8.91367C26.1775 8.99561 26.4615 9.19024 26.7456 9.67169C27.0904 10.2556 27.5571 11.7307 27.8208 12.8575C27.9019 13.1944 27.7827 13.3451 27.4845 13.3529L25.3342 13.2392C24.1904 13.1882 22.8052 13.1474 20.9612 13.1367H19.0413C15.9756 13.1544 14.1766 13.256 12.6458 13.3491C12.2502 13.3799 12.0981 13.2365 12.1893 12.8575ZM10.9214 18.8295C10.9214 19.7924 11.6416 20.5299 12.6052 20.5299C13.5587 20.5299 14.2891 19.7924 14.2891 18.8295C14.2891 17.8563 13.5587 17.129 12.6052 17.129C11.6416 17.129 10.9214 17.8563 10.9214 18.8295ZM27.4049 20.5299C26.4413 20.5299 25.721 19.7924 25.721 18.8295C25.721 17.8563 26.4413 17.129 27.4049 17.129C28.3584 17.129 29.0888 17.8563 29.0888 18.8295C29.0888 19.7924 28.3584 20.5299 27.4049 20.5299ZM16.0947 18.8295C16.0947 19.5465 16.6019 20.0587 17.3119 20.0587H22.6881C23.4083 20.0587 23.9053 19.5465 23.9053 18.8295C23.9053 18.1022 23.4083 17.6002 22.6881 17.6002H17.3119C16.6019 17.6002 16.0947 18.1022 16.0947 18.8295Z" fill="black"/>
<path d="M11.885 22.9372L12.0317 20.3445L9.28825 20.1893V22.9372H11.885ZM13.087 23.0052L12.9403 25.5978L12.9483 25.5983L12.9563 25.5987L13.087 23.0052ZM19.3357 23.1809L19.3197 25.7777L19.3275 25.7777L19.3357 23.1809ZM20 23.183L19.9918 25.7798H20V23.183ZM28.1251 22.9372H30.7219V20.1697L27.9601 20.3456L28.1251 22.9372ZM30.7219 14.8242L32.7902 13.254L32.7837 13.2455L32.7772 13.2371L30.7219 14.8242ZM29.8597 13.7077L27.3124 14.2122L27.431 14.8114L27.8044 15.2948L29.8597 13.7077ZM28.47 9.16976L30.8336 8.09435L30.8256 8.07661L30.8172 8.059L28.47 9.16976ZM25.5283 7.14152L25.88 4.56865L25.8297 4.56178L25.7792 4.55688L25.5283 7.14152ZM25.2932 7.1187L25.544 4.53406L25.523 4.53202L25.5019 4.53032L25.2932 7.1187ZM21.0978 7.00175L21.1153 4.40503L21.1078 4.40497L21.1003 4.40497L21.0978 7.00175ZM19.264 7L19.2665 4.40321L19.2586 4.40321L19.2507 4.40325L19.264 7ZM14.4818 7.14152L14.2094 4.55907L14.189 4.56122L14.1687 4.56369L14.4818 7.14152ZM11.5402 9.16976L13.8918 10.2712L13.8953 10.2636L11.5402 9.16976ZM10.1403 13.7077L12.2047 15.283L12.5661 14.8094L12.6849 14.2256L10.1403 13.7077ZM9.28825 14.8242L11.3483 16.4052L11.3526 16.3996L9.28825 14.8242ZM13.2544 9.67169L10.9973 8.38768L10.992 8.39701L13.2544 9.67169ZM12.1893 12.8575L14.7139 13.4656L14.7237 13.4249L14.7322 13.384L12.1893 12.8575ZM14.3702 8.91367L14.0688 6.33443L14.051 6.33652L14.0332 6.33885L14.3702 8.91367ZM14.74 8.87045L14.4949 6.28525L14.4667 6.28793L14.4385 6.29122L14.74 8.87045ZM19.5813 8.7399L19.5843 6.14311L19.5765 6.14312L19.5813 8.7399ZM21.159 8.74173L21.1698 6.14495L21.162 6.14494L21.159 8.74173ZM25.6298 8.91367L25.182 11.4716L25.2137 11.4771L25.2455 11.4819L25.6298 8.91367ZM26.7456 9.67169L24.509 10.9911L24.5097 10.9924L26.7456 9.67169ZM27.8208 12.8575L25.2923 13.4493L25.2943 13.4574L25.2962 13.4656L27.8208 12.8575ZM27.4845 13.3529L27.3475 15.946L27.4497 15.9514L27.552 15.9488L27.4845 13.3529ZM25.3342 13.2392L25.4713 10.6461L25.4607 10.6455L25.4501 10.645L25.3342 13.2392ZM20.9612 13.1367L20.9762 10.54L20.9687 10.5399H20.9612V13.1367ZM19.0413 13.1367V10.5399H19.0338L19.0263 10.54L19.0413 13.1367ZM12.6458 13.3491L12.4881 10.7572L12.4664 10.7585L12.4447 10.7602L12.6458 13.3491ZM10.5359 23.4032H9.34911V28.5968H10.5359V23.4032ZM9.28825 24.6581C9.28825 24.3471 9.41593 24.0192 9.66511 23.7716C9.91354 23.5246 10.2361 23.4032 10.5359 23.4032V28.5968C12.7161 28.5968 14.4818 26.865 14.4818 24.6581H9.28825ZM9.28825 22.9372V24.6581H14.4818V22.9372H9.28825ZM13.2337 20.4125L12.0317 20.3445L11.7384 25.5298L12.9403 25.5978L13.2337 20.4125ZM19.3517 20.5842C17.3626 20.5719 15.0854 20.5058 13.2177 20.4117L12.9563 25.5987C14.8997 25.6966 17.2533 25.7649 19.3197 25.7776L19.3517 20.5842ZM20.0082 20.5862L19.3439 20.5841L19.3275 25.7777L19.9918 25.7798L20.0082 20.5862ZM27.9601 20.3456C25.7673 20.4853 22.5562 20.5862 20 20.5862V25.7798C22.6576 25.7798 25.9791 25.6759 28.2901 25.5287L27.9601 20.3456ZM30.7219 24.6581V22.9372H25.5283V24.6581H30.7219ZM29.4641 23.4032C29.7665 23.4032 30.0964 23.5269 30.3496 23.7812C30.6018 24.0345 30.7219 24.3608 30.7219 24.6581H25.5283C25.5283 26.8393 27.2581 28.5968 29.4641 28.5968V23.4032ZM30.661 23.4032H29.4641V28.5968H30.661V23.4032ZM29.4032 24.6581C29.4032 24.3608 29.5233 24.0345 29.7755 23.7812C30.0287 23.5269 30.3586 23.4032 30.661 23.4032V28.5968C32.867 28.5968 34.5968 26.8393 34.5968 24.6581H29.4032ZM29.4032 18.7475V24.6581H34.5968V18.7475H29.4032ZM28.6536 16.3944C29.0104 16.8644 29.1608 17.1614 29.246 17.4185C29.3336 17.6827 29.4032 18.0592 29.4032 18.7475H34.5968C34.5968 17.7149 34.494 16.7443 34.1758 15.7845C33.8553 14.8175 33.3666 14.0133 32.7902 13.254L28.6536 16.3944ZM27.8044 15.2948L28.6666 16.4114L32.7772 13.2371L31.915 12.1205L27.8044 15.2948ZM26.1063 10.2452C26.3655 10.8147 26.9849 12.5586 27.3124 14.2122L32.407 13.2032C32.0041 11.1691 31.2643 9.04086 30.8336 8.09435L26.1063 10.2452ZM25.1767 9.71439C25.7951 9.79891 26.0066 10.0351 26.1228 10.2805L30.8172 8.059C29.8378 5.98934 27.9597 4.8529 25.88 4.56865L25.1767 9.71439ZM25.0423 9.70335L25.2775 9.72617L25.7792 4.55688L25.544 4.53406L25.0423 9.70335ZM21.0803 9.59848C22.9772 9.61123 24.4566 9.65645 25.0844 9.70708L25.5019 4.53032C24.6623 4.46259 23.0098 4.41776 21.1153 4.40503L21.0803 9.59848ZM19.2615 9.59679L21.0953 9.59854L21.1003 4.40497L19.2665 4.40321L19.2615 9.59679ZM14.7543 9.72398C15.22 9.67484 16.9698 9.60861 19.2774 9.59675L19.2507 4.40325C16.9778 4.41493 14.9735 4.47845 14.2094 4.55907L14.7543 9.72398ZM13.8953 10.2636C14.0086 10.0196 14.2232 9.78882 14.795 9.71936L14.1687 4.56369C12.0422 4.82202 10.1469 6.00481 9.18499 8.0759L13.8953 10.2636ZM12.6849 14.2256C13.0265 12.5475 13.6382 10.8127 13.8918 10.2712L9.18852 8.06834C8.73207 9.04289 8.00476 11.1802 7.59571 13.1897L12.6849 14.2256ZM11.3526 16.3996L12.2047 15.283L8.07597 12.1323L7.2239 13.2489L11.3526 16.3996ZM10.5968 18.7475C10.5968 18.0589 10.6665 17.6846 10.7537 17.4231C10.8385 17.1691 10.9886 16.8739 11.3483 16.4052L7.22819 13.2433C6.64456 14.0037 6.15054 14.8098 5.82698 15.7799C5.50591 16.7425 5.40321 17.7153 5.40321 18.7475H10.5968ZM10.5968 24.6581V18.7475H5.40321V24.6581H10.5968ZM9.34911 23.4032C9.64896 23.4032 9.9715 23.5246 10.2199 23.7716C10.4691 24.0192 10.5968 24.3471 10.5968 24.6581H5.40321C5.40321 26.865 7.16895 28.5968 9.34911 28.5968V23.4032ZM10.992 8.39701C10.4729 9.31837 9.90684 11.0735 9.6465 12.331L14.7322 13.384C14.8235 12.9431 14.9757 12.3972 15.1455 11.8917C15.2291 11.6427 15.3111 11.4213 15.3839 11.2428C15.4201 11.154 15.4514 11.0824 15.4769 11.0277C15.5034 10.9707 15.517 10.9461 15.5168 10.9464L10.992 8.39701ZM14.0332 6.33885C13.5023 6.40834 12.8626 6.57293 12.2452 6.99459C11.6329 7.41273 11.251 7.94172 10.9973 8.38769L15.5116 10.9557C15.5318 10.9202 15.4339 11.106 15.1741 11.2835C14.9092 11.4644 14.6904 11.4907 14.7073 11.4885L14.0332 6.33885ZM14.4385 6.29122L14.0688 6.33443L14.6717 11.4929L15.0414 11.4497L14.4385 6.29122ZM19.5765 6.14312C17.123 6.14766 15.4805 6.19184 14.4949 6.28525L14.985 11.4557C15.7004 11.3878 17.1188 11.3413 19.5861 11.3367L19.5765 6.14312ZM21.162 6.14494L19.5843 6.14312L19.5783 11.3367L21.156 11.3385L21.162 6.14494ZM26.0775 6.35577C25.1489 6.19323 23.5018 6.15465 21.1698 6.14496L21.1482 11.3385C23.6542 11.3489 24.7875 11.4025 25.182 11.4716L26.0775 6.35577ZM28.9822 8.35225C28.7288 7.92279 28.3508 7.40658 27.7476 6.99606C27.1408 6.58313 26.5178 6.42083 26.014 6.34546L25.2455 11.4819C25.2895 11.4884 25.0824 11.4644 24.8256 11.2897C24.5723 11.1173 24.4783 10.9391 24.509 10.9911L28.9822 8.35225ZM30.3492 12.2656C30.1997 11.6265 29.996 10.9014 29.779 10.2454C29.5826 9.65172 29.3078 8.90355 28.9814 8.35102L24.5097 10.9924C24.5004 10.9766 24.5382 11.0422 24.615 11.2319C24.6847 11.404 24.7643 11.623 24.8482 11.8766C25.0167 12.3858 25.1782 12.9616 25.2923 13.4493L30.3492 12.2656ZM27.552 15.9488C28.0258 15.9364 29.1608 15.798 29.9173 14.7248C30.6278 13.717 30.4435 12.6565 30.3454 12.2494L25.2962 13.4656C25.2793 13.3953 25.076 12.5786 25.6725 11.7324C26.3152 10.8207 27.2415 10.7615 27.417 10.7569L27.552 15.9488ZM25.1972 15.8324L27.3475 15.946L27.6215 10.7597L25.4713 10.6461L25.1972 15.8324ZM20.9463 15.7335C22.7577 15.7439 24.1093 15.7839 25.2184 15.8334L25.4501 10.645C24.2716 10.5924 22.8527 10.5508 20.9762 10.54L20.9463 15.7335ZM19.0413 15.7335H20.9612V10.5399H19.0413V15.7335ZM12.8035 15.9411C14.3058 15.8498 16.0541 15.7508 19.0563 15.7335L19.0263 10.54C15.8972 10.5581 14.0474 10.6623 12.4881 10.7572L12.8035 15.9411ZM9.66477 12.2494C9.56854 12.6489 9.321 13.9693 10.3601 15.0537C11.3047 16.0393 12.5262 15.9631 12.8469 15.9381L12.4447 10.7602C12.4917 10.7565 12.6842 10.7435 12.9521 10.8023C13.2344 10.8644 13.6975 11.0299 14.1099 11.4603C14.9968 12.3858 14.7189 13.4451 14.7139 13.4656L9.66477 12.2494ZM12.6052 17.9331C12.8067 17.9331 13.0553 18.019 13.251 18.2175C13.444 18.4132 13.5182 18.6493 13.5182 18.8295H8.3246C8.3246 21.1921 10.1732 23.1267 12.6052 23.1267V17.9331ZM11.6923 18.8295C11.6923 18.6388 11.7713 18.4037 11.9596 18.2136C12.1487 18.0225 12.3935 17.9331 12.6052 17.9331V23.1267C15.0168 23.1267 16.8859 21.2025 16.8859 18.8295H11.6923ZM12.6052 19.7258C12.4042 19.7258 12.1584 19.6415 11.9634 19.4454C11.7679 19.2488 11.6923 19.0098 11.6923 18.8295H16.8859C16.8859 16.4359 15.0066 14.5322 12.6052 14.5322V19.7258ZM13.5182 18.8295C13.5182 18.9993 13.4474 19.2393 13.2471 19.4415C13.0457 19.645 12.796 19.7258 12.6052 19.7258V14.5322C10.1835 14.5322 8.3246 16.4462 8.3246 18.8295H13.5182ZM23.1243 18.8295C23.1243 21.1921 24.9729 23.1267 27.4049 23.1267V17.9331C27.6063 17.9331 27.8549 18.019 28.0506 18.2175C28.2437 18.4132 28.3178 18.6493 28.3178 18.8295H23.1243ZM27.4049 14.5322C24.9832 14.5322 23.1243 16.4462 23.1243 18.8295H28.3178C28.3178 18.9993 28.247 19.2393 28.0468 19.4415C27.8453 19.645 27.5957 19.7258 27.4049 19.7258V14.5322ZM31.6855 18.8295C31.6855 16.4359 29.8062 14.5322 27.4049 14.5322V19.7258C27.2038 19.7258 26.9581 19.6415 26.7631 19.4454C26.5676 19.2488 26.492 19.0098 26.492 18.8295H31.6855ZM27.4049 23.1267C29.8165 23.1267 31.6855 21.2025 31.6855 18.8295H26.492C26.492 18.6388 26.571 18.4037 26.7592 18.2136C26.9484 18.0225 27.1932 17.9331 27.4049 17.9331V23.1267ZM17.3119 17.4619C17.6 17.4619 17.976 17.5765 18.2822 17.8858C18.5868 18.1934 18.6915 18.5607 18.6915 18.8295H13.4979C13.4979 20.9566 15.1438 22.6555 17.3119 22.6555V17.4619ZM22.6881 17.4619H17.3119V22.6555H22.6881V17.4619ZM21.3085 18.8295C21.3085 18.5755 21.4059 18.2065 21.7162 17.8913C22.0306 17.5719 22.4125 17.4619 22.6881 17.4619V22.6555C23.6839 22.6555 24.6744 22.2895 25.4173 21.5347C26.1563 20.7841 26.5021 19.8005 26.5021 18.8295H21.3085ZM22.6881 20.197C22.4276 20.197 22.0438 20.0947 21.7216 19.7693C21.4013 19.4459 21.3085 19.0709 21.3085 18.8295H26.5021C26.5021 17.8608 26.1608 16.8711 25.412 16.1149C24.6612 15.3568 23.6688 15.0035 22.6881 15.0035V20.197ZM17.3119 20.197H22.6881V15.0035H17.3119V20.197ZM18.6915 18.8295C18.6915 19.0857 18.5914 19.4589 18.2768 19.7747C17.9627 20.0901 17.5849 20.197 17.3119 20.197V15.0035C16.3288 15.0035 15.3424 15.3614 14.5972 16.1095C13.8515 16.8581 13.4979 17.8459 13.4979 18.8295H18.6915Z" fill="white" mask="url(#path-1-outside-1)"/>
</g>
<defs>
<filter id="filter0_d" x="0.403198" y="2.40332" width="39.1936" height="34.1936" filterUnits="userSpaceOnUse" color-interpolation-filters="sRGB">
<feFlood flood-opacity="0" result="BackgroundImageFix"/>
<feColorMatrix in="SourceAlpha" type="matrix" values="0 0 0 0 0 0 0 0 0 0 0 0 0 0 0 0 0 0 127 0"/>
<feOffset dy="3"/>
<feGaussianBlur stdDeviation="2.5"/>
<feColorMatrix type="matrix" values="0 0 0 0 0 0 0 0 0 0 0 0 0 0 0 0 0 0 0.3 0"/>
<feBlend mode="normal" in2="BackgroundImageFix" result="effect1_dropShadow"/>
<feBlend mode="normal" in="SourceGraphic" in2="effect1_dropShadow" result="shape"/>
</filter>
</defs>
</svg>
