<svg width="158" height="64" viewBox="0 0 158 64" fill="none" xmlns="http://www.w3.org/2000/svg">
<path fill-rule="evenodd" clip-rule="evenodd" d="M137.843 56.247C137.843 56.247 153.455 56.8553 154.336 55.0149C155.217 53.1745 158.468 38.2462 152.425 33.9348C146.382 29.6235 135.531 28.7845 126.031 23.6105C116.532 18.4365 110.95 12.3738 105.496 9.6673C100.042 6.96084 75.4962 3 58.7465 3C41.9968 3 10.9966 9.6673 10.9966 9.6673V23.6105C10.9966 23.6105 3.51189 26.6565 2.4389 29.6235C1.36592 32.5905 1.54151 46.5244 2.4389 49.8814C3.3363 53.2385 9.55582 56.247 9.55582 56.247H21.9671H114.541" fill="white"/>
<path d="M137.843 56.247C137.843 56.247 153.455 56.8553 154.336 55.0149C155.217 53.1745 158.468 38.2462 152.425 33.9348C146.382 29.6235 135.531 28.7845 126.031 23.6105C116.532 18.4365 110.95 12.3738 105.496 9.6673C100.042 6.96084 75.4962 3 58.7465 3C41.9968 3 10.9966 9.6673 10.9966 9.6673V23.6105C10.9966 23.6105 3.51189 26.6565 2.4389 29.6235C1.36592 32.5905 1.54151 46.5244 2.4389 49.8814C3.3363 53.2385 9.55582 56.247 9.55582 56.247H21.9671H114.541" stroke="black" stroke-width="3"/>
<ellipse rx="12.7536" ry="12.1186" transform="matrix(-1 0 0 1 126.031 49.8814)" fill="white" stroke="black" stroke-width="3"/>
<ellipse rx="7.01449" ry="6.66523" transform="matrix(-1 0 0 1 126.031 49.8814)" fill="white" stroke="black"/>
<ellipse rx="12.7536" ry="12.1186" transform="matrix(-1 0 0 1 33.5677 49.8814)" fill="white" stroke="black" stroke-width="3"/>
<ellipse rx="7.01449" ry="6.66523" transform="matrix(-1 0 0 1 33.5677 49.8814)" fill="white" stroke="black"/>
<path fill-rule="evenodd" clip-rule="evenodd" d="M114.53 25.4389C112.164 28.335 39.8459 26.0254 39.8459 26.0254L32.5993 9.42971C32.5993 9.42971 58.2821 6.22765 71.9211 7.54239C80.3208 8.35208 94.4504 9.20175 104.147 14.06C106.344 15.1605 116.896 22.5428 114.53 25.4389Z" fill="white" stroke="black" stroke-width="2"/>
<path fill-rule="evenodd" clip-rule="evenodd" d="M155.867 41.4363C155.954 42.1289 148.674 42.1326 147.51 41.4363C146.345 40.7401 144.322 36.4069 144.322 35.9802C144.322 35.5534 153.555 35.6756 154.264 36.1246C154.973 36.5736 155.781 40.7438 155.867 41.4363Z" fill="white" stroke="black" stroke-width="2"/>
<path fill-rule="evenodd" clip-rule="evenodd" d="M106.644 52.1077H52.6171C52.6171 52.1077 50.0374 45.2663 79.3519 45.2663C108.666 45.2663 106.644 52.1077 106.644 52.1077Z" fill="white" stroke="black" stroke-width="2"/>
<path d="M68.232 38.1518C69.6594 38.1518 70.7012 37.2863 70.8037 36.023H69.5979C69.4789 36.6752 68.9457 37.0936 68.2361 37.0936C67.301 37.0936 66.7227 36.3061 66.7227 35.0387C66.7227 33.7713 67.301 32.9838 68.232 32.9838C68.9375 32.9838 69.4748 33.435 69.5937 34.1199H70.7996C70.7094 32.8484 69.6348 31.9297 68.232 31.9297C66.5135 31.9297 65.4553 33.115 65.4553 35.0387C65.4553 36.9623 66.5176 38.1518 68.232 38.1518ZM75.9184 33.4842H74.7248V36.0928C74.7248 36.7121 74.4049 37.0936 73.8102 37.0936C73.2605 37.0936 72.9775 36.7695 72.9775 36.1297V33.4842H71.784V36.425C71.784 37.475 72.391 38.0943 73.3672 38.0943C74.0521 38.0943 74.4746 37.799 74.6879 37.274H74.7617V38H75.9184V33.4842ZM81.1068 36.9582H78.4736V32.0814H77.235V38H81.1068V36.9582ZM82.7187 32.791C83.0879 32.791 83.3914 32.4957 83.3914 32.1266C83.3914 31.7533 83.0879 31.458 82.7187 31.458C82.3496 31.458 82.042 31.7533 82.042 32.1266C82.042 32.4957 82.3496 32.791 82.7187 32.791ZM82.1199 38H83.3135V33.4842H82.1199V38ZM84.8721 38H86.0656V34.4316H87.0008V33.5252H86.041V33.1438C86.041 32.75 86.2133 32.5572 86.6809 32.5572C86.8367 32.5572 86.9598 32.5695 87.0377 32.5818V31.7574C86.8654 31.7328 86.6645 31.7123 86.4225 31.7123C85.3314 31.7123 84.8721 32.1635 84.8721 33.0617V33.5252H84.142V34.4316H84.8721V38ZM88.3338 32.4055V33.5252H87.6283V34.4316H88.3338V36.7818C88.3338 37.6596 88.7686 38.0164 89.8678 38.0164C90.0975 38.0164 90.3189 37.9918 90.4666 37.9631V37.0813C90.3518 37.0936 90.2697 37.1018 90.1139 37.1018C89.7078 37.1018 89.5273 36.9131 89.5273 36.507V34.4316H90.4666V33.5252H89.5273V32.4055H88.3338Z" fill="black"/>
</svg>
