<svg width="41" height="100" viewBox="0 0 41 100" fill="none" xmlns="http://www.w3.org/2000/svg">
<path d="M25.2297 30.1449V44.1252V100" stroke="black" stroke-width="3"/>
<path d="M39.4174 32.4553L25.5298 45.3196" stroke="black" stroke-width="2"/>
<path d="M15.2002 49.6L25.7002 60.7" stroke="black" stroke-width="2"/>
<path d="M11.4041 28.2605L12.2959 29.9382L14.0025 29.0311L13.0664 27.3403L11.4041 28.2605ZM44.5674 18.6171L42.6709 18.7316L42.7304 19.7173L43.5712 20.235L44.5674 18.6171ZM35.7396 51.3946L35.6933 49.4952L34.5174 49.5239L34.0188 50.5892L35.7396 51.3946ZM13.0664 27.3403C11.8138 25.0778 11.1 22.4751 11.1 19.7H7.3C7.3 23.1352 8.18538 26.3694 9.74185 29.1808L13.0664 27.3403ZM11.1 19.7C11.1 10.9739 18.1739 3.9 26.9 3.9V0.1C16.0752 0.1 7.3 8.87522 7.3 19.7H11.1ZM26.9 3.9C35.3008 3.9 42.1715 10.4574 42.6709 18.7316L46.464 18.5027C45.8443 8.23456 37.3228 0.1 26.9 0.1V3.9ZM54.9 33.7C54.9 26.6355 51.1613 20.446 45.5636 16.9992L43.5712 20.235C48.0926 23.019 51.1 28.0091 51.1 33.7H54.9ZM35.7859 53.2941C46.3867 53.0357 54.9 44.3623 54.9 33.7H51.1C51.1 42.2946 44.2372 49.2869 35.6933 49.4952L35.7859 53.2941ZM19.7 63.5C27.5612 63.5 34.3376 58.8719 37.4604 52.2001L34.0188 50.5892C31.4977 55.9753 26.0319 59.7 19.7 59.7V63.5ZM0.1 43.9C0.1 54.7248 8.87522 63.5 19.7 63.5V59.7C10.9739 59.7 3.9 52.6261 3.9 43.9H0.1ZM10.5123 26.5828C4.32198 29.8733 0.1 36.3921 0.1 43.9H3.9C3.9 37.8525 7.29701 32.5954 12.2959 29.9382L10.5123 26.5828Z" fill="black"/>
</svg>
