<svg width="150" height="64" viewBox="0 0 150 64" fill="none" xmlns="http://www.w3.org/2000/svg">
<g clip-path="url(#clip0)">
<path fill-rule="evenodd" clip-rule="evenodd" d="M131.431 56.6909C131.431 56.6909 147.225 57.3385 148.117 55.3791C149.008 53.4197 152.296 37.5258 146.183 32.9356C140.07 28.3454 129.092 27.4522 119.482 21.9436C109.871 16.4349 104.224 9.98003 98.7064 7.09852C93.1887 4.21701 68.3569 0 51.4118 0C34.4667 0 3.10486 7.09852 3.10486 7.09852V21.9436C3.10486 21.9436 -4.46713 25.1865 -5.55264 28.3454C-6.63815 31.5044 -6.46051 46.3394 -5.55264 49.9136C-4.64478 53.4878 1.64729 56.6909 1.64729 56.6909H14.2034H107.857" fill="white"/>
<path d="M131.431 56.6909C131.431 56.6909 147.225 57.3385 148.117 55.3791C149.008 53.4196 152.296 37.5258 146.183 32.9356C140.07 28.3454 129.092 27.4522 119.482 21.9436C109.871 16.4349 104.224 9.98003 98.7064 7.09852C93.1887 4.21701 68.3569 0 51.4118 0C34.4667 0 3.10486 7.09852 3.10486 7.09852V21.9436C3.10486 21.9436 -4.46714 25.1865 -5.55264 28.3454C-6.63815 31.5044 -6.46051 46.3394 -5.55264 49.9136C-4.64478 53.4878 1.64729 56.6909 1.64729 56.6909H14.2034H107.857" stroke="black" stroke-width="3"/>
<circle r="12.9024" transform="matrix(-1 0 0 1 119.482 49.9136)" fill="white" stroke="black" stroke-width="3"/>
<circle r="7.09632" transform="matrix(-1 0 0 1 119.482 49.9136)" fill="white" stroke="black"/>
<circle r="12.9024" transform="matrix(-1 0 0 1 25.9394 49.9136)" fill="white" stroke="black" stroke-width="3"/>
<circle r="7.09632" transform="matrix(-1 0 0 1 25.9393 49.9136)" fill="white" stroke="black"/>
<path fill-rule="evenodd" clip-rule="evenodd" d="M107.846 23.8902C105.452 26.9736 32.2908 24.5145 32.2908 24.5145L24.9596 6.84554C24.9596 6.84554 50.942 3.43638 64.7402 4.83616C73.2378 5.69821 87.5322 6.60284 97.3421 11.7753C99.5644 12.947 110.239 20.8067 107.846 23.8902Z" fill="white" stroke="black" stroke-width="2"/>
<path fill-rule="evenodd" clip-rule="evenodd" d="M149.666 40.9223C149.753 41.6596 142.388 41.6636 141.21 40.9223C140.032 40.181 137.986 35.5676 137.986 35.1132C137.986 34.6589 147.327 34.7889 148.044 35.267C148.761 35.7451 149.578 40.1849 149.666 40.9223Z" fill="white" stroke="black" stroke-width="2"/>
<path fill-rule="evenodd" clip-rule="evenodd" d="M99.8679 52.2839H45.2111C45.2111 52.2839 42.6013 45 72.2578 45C101.914 45 99.8679 52.2839 99.8679 52.2839Z" fill="white" stroke="black" stroke-width="2"/>
<path d="M60.232 38.1518C61.6594 38.1518 62.7012 37.2863 62.8037 36.023H61.5979C61.4789 36.6752 60.9457 37.0936 60.2361 37.0936C59.301 37.0936 58.7227 36.3061 58.7227 35.0387C58.7227 33.7713 59.301 32.9838 60.232 32.9838C60.9375 32.9838 61.4748 33.435 61.5937 34.1199H62.7996C62.7094 32.8484 61.6348 31.9297 60.232 31.9297C58.5135 31.9297 57.4553 33.115 57.4553 35.0387C57.4553 36.9623 58.5176 38.1518 60.232 38.1518ZM67.9184 33.4842H66.7248V36.0928C66.7248 36.7121 66.4049 37.0936 65.8102 37.0936C65.2605 37.0936 64.9775 36.7695 64.9775 36.1297V33.4842H63.784V36.425C63.784 37.475 64.391 38.0943 65.3672 38.0943C66.0521 38.0943 66.4746 37.799 66.6879 37.274H66.7617V38H67.9184V33.4842ZM73.1068 36.9582H70.4736V32.0814H69.235V38H73.1068V36.9582ZM74.7187 32.791C75.0879 32.791 75.3914 32.4957 75.3914 32.1266C75.3914 31.7533 75.0879 31.458 74.7187 31.458C74.3496 31.458 74.042 31.7533 74.042 32.1266C74.042 32.4957 74.3496 32.791 74.7187 32.791ZM74.1199 38H75.3135V33.4842H74.1199V38ZM76.8721 38H78.0656V34.4316H79.0008V33.5252H78.041V33.1438C78.041 32.75 78.2133 32.5572 78.6809 32.5572C78.8367 32.5572 78.9598 32.5695 79.0377 32.5818V31.7574C78.8654 31.7328 78.6645 31.7123 78.4225 31.7123C77.3314 31.7123 76.8721 32.1635 76.8721 33.0617V33.5252H76.142V34.4316H76.8721V38ZM80.3338 32.4055V33.5252H79.6283V34.4316H80.3338V36.7818C80.3338 37.6596 80.7686 38.0164 81.8678 38.0164C82.0975 38.0164 82.3189 37.9918 82.4666 37.9631V37.0813C82.3518 37.0936 82.2697 37.1018 82.1139 37.1018C81.7078 37.1018 81.5273 36.9131 81.5273 36.507V34.4316H82.4666V33.5252H81.5273V32.4055H80.3338Z" fill="black"/>
</g>
<defs>
<clipPath id="clip0">
<rect width="158" height="64" fill="white" transform="translate(-8)"/>
</clipPath>
</defs>
</svg>
